<?xml version="1.0" standalone="no"?>
<!DOCTYPE svg PUBLIC "-//W3C//DTD SVG 20010904//EN"
 "http://www.w3.org/TR/2001/REC-SVG-20010904/DTD/svg10.dtd">
<svg version="1.0" xmlns="http://www.w3.org/2000/svg"
 width="300.000000pt" height="300.000000pt" viewBox="0 0 300.000000 300.000000"
 preserveAspectRatio="xMidYMid meet">
<metadata>
Created by potrace 1.10, written by Peter Selinger 2001-2011
</metadata>
<g transform="translate(0.000000,300.000000) scale(0.100000,-0.100000)"
fill="#000000" stroke="none">
<path d="M1111 2714 c-26 -32 -91 -175 -91 -202 0 -5 -20 -26 -45 -47 -48 -39
-128 -152 -153 -217 -11 -27 -23 -40 -41 -44 -121 -26 -181 -56 -205 -101 -30
-58 26 -121 159 -179 l66 -29 -6 -40 c-3 -22 -14 -112 -26 -199 -13 -101 -19
-180 -15 -215 8 -68 56 -171 96 -205 17 -13 30 -26 30 -28 0 -2 -130 -2 -288
0 -282 3 -289 2 -307 -18 -24 -26 -23 -71 5 -253 29 -186 69 -337 96 -363 12
-13 41 -25 65 -29 l44 -7 0 -66 c0 -94 32 -157 91 -184 40 -17 53 -18 146 -8
57 5 150 14 207 19 l104 10 41 -35 c61 -52 94 -57 227 -35 156 27 216 28 262
5 36 -17 42 -17 184 0 143 17 240 43 276 75 10 8 31 14 47 13 15 -2 46 6 69
17 53 27 80 26 125 -4 20 -14 40 -25 43 -25 3 0 23 16 44 35 22 19 45 35 52
35 6 0 34 -11 61 -25 60 -30 95 -32 130 -4 35 28 33 47 -13 92 -25 24 -60 81
-100 162 -33 69 -79 153 -102 187 -52 77 -153 184 -228 241 -31 23 -61 47 -68
53 -6 6 -26 17 -43 24 l-32 13 38 20 c22 11 41 23 44 26 3 4 25 22 49 41 88
68 158 190 182 314 5 28 16 54 24 59 8 4 15 19 15 32 0 25 14 33 25 15 3 -5
15 -10 26 -10 10 0 19 -4 19 -9 0 -11 79 -11 86 0 3 5 14 9 25 9 11 0 22 7 25
15 4 8 13 15 20 15 8 0 19 11 23 24 5 13 16 26 25 29 21 8 18 135 -4 157 -8 8
-22 26 -30 38 -8 13 -22 24 -31 25 -10 2 -24 9 -33 16 -8 7 -20 10 -26 6 -6
-4 -10 13 -10 48 0 127 -66 264 -197 406 -18 20 -33 42 -33 49 0 7 -16 61 -35
120 -35 110 -61 152 -94 152 -22 0 -90 -64 -127 -119 l-26 -41 -31 22 c-41 29
-177 88 -204 88 -13 0 -23 6 -23 13 0 26 -40 50 -88 55 -43 4 -51 1 -68 -20
-17 -22 -30 -26 -99 -31 -68 -5 -153 -25 -217 -51 -11 -5 -18 -2 -22 11 -9 26
-72 93 -89 93 -8 0 -28 -16 -46 -36z m99 -52 c18 -29 18 -30 -1 -35 -10 -3
-22 0 -26 5 -3 7 -1 8 5 4 17 -10 15 16 -4 42 -15 22 -41 32 -28 10 4 -6 3 -8
-3 -5 -10 6 -53 -73 -53 -97 0 -18 -39 -65 -40 -48 0 18 58 143 77 164 14 15
18 16 35 3 11 -7 28 -27 38 -43z m486 43 c18 -14 18 -15 -6 -11 -14 3 -40 5
-58 5 -19 1 -31 5 -27 11 9 15 69 12 91 -5z m454 -10 c0 -2 -10 -15 -22 -28
-13 -14 -37 -45 -55 -70 -24 -34 -29 -46 -18 -50 12 -5 30 18 26 36 0 4 6 10
14 13 8 4 15 15 15 25 0 10 5 19 10 19 6 0 10 7 10 16 0 8 5 12 11 8 7 -4 9
-32 5 -84 -5 -50 -3 -81 4 -85 6 -4 10 10 10 37 0 24 5 50 11 58 9 13 10 13 6
0 -2 -8 5 -37 14 -64 15 -40 16 -53 6 -65 -8 -9 -8 -12 -1 -8 8 4 16 -10 23
-39 7 -26 11 -48 9 -49 -2 -2 -41 34 -87 81 -47 46 -93 86 -103 90 -10 3 -18
9 -18 14 0 13 110 150 121 150 5 0 9 -2 9 -5z m69 -135 c28 -91 52 -185 66
-260 6 -33 6 -34 -8 -15 -8 12 -25 68 -38 125 -12 58 -35 143 -50 190 -16 47
-29 90 -29 95 1 24 32 -48 59 -135z m-738 83 c-17 -21 -41 -58 -54 -83 -21
-40 -28 -46 -64 -51 -34 -4 -40 -2 -35 10 5 13 2 12 -12 -2 -18 -18 -41 -14
-30 5 5 7 2 8 -5 4 -9 -6 -8 -12 4 -26 14 -15 22 -16 52 -8 20 5 53 6 76 1 23
-4 48 -7 54 -6 7 0 10 -3 7 -8 -3 -5 2 -12 10 -15 9 -3 16 -11 16 -16 0 -5
-15 0 -34 11 -36 23 -66 27 -66 11 0 -6 6 -10 13 -9 30 4 47 -2 47 -16 0 -8
-5 -15 -12 -15 -6 0 -8 -3 -5 -6 4 -4 12 -2 19 3 25 20 49 10 69 -28 33 -67
19 -150 -35 -204 -14 -14 -22 -25 -18 -25 4 -1 -4 -7 -18 -15 -38 -22 -116
-19 -139 4 -14 14 -21 16 -25 8 -2 -7 -5 -2 -5 9 -1 12 6 27 14 34 8 7 15 8
15 3 0 -6 14 -9 31 -7 26 3 29 2 20 -10 -10 -12 -8 -17 8 -25 28 -16 33 -14
21 8 -14 27 -13 31 7 24 11 -4 14 -3 9 5 -13 22 11 12 28 -10 16 -22 17 -16 1
25 -7 19 32 60 51 53 9 -4 14 -13 10 -21 -3 -8 -2 -15 3 -15 11 0 21 36 21 76
0 28 -2 31 -26 26 -20 -4 -25 -1 -22 9 3 8 15 13 26 11 12 -2 22 1 22 5 0 5
-15 9 -32 8 -20 0 -33 5 -33 13 0 6 -3 11 -6 10 -14 -7 -37 24 -32 45 4 21 4
21 -11 3 -9 -11 -23 -17 -34 -14 -10 3 -27 -1 -37 -8 -21 -16 -31 -59 -15 -69
5 -3 10 1 10 10 0 9 5 13 10 10 6 -3 10 -1 10 6 0 8 4 8 15 -1 13 -10 15 -9
15 10 0 19 -4 21 -32 16 -29 -5 -30 -5 -11 5 25 13 59 7 88 -15 14 -11 16 -18
9 -23 -7 -5 -8 -16 -3 -30 12 -32 21 -29 13 5 -4 21 -3 24 5 12 14 -20 14 -56
0 -82 -9 -17 -13 -18 -21 -7 -8 11 -9 11 -5 -3 7 -22 -23 -48 -57 -48 -35 0
-83 25 -96 51 -14 25 -4 93 16 109 9 8 11 17 4 29 -5 10 -10 30 -12 45 -4 27
-19 37 -26 17 -2 -6 2 -11 9 -11 7 0 1 -12 -13 -27 -47 -51 -62 -95 -29 -86
20 5 36 -11 26 -27 -4 -6 -15 -6 -30 0 -27 10 -27 16 -9 -66 l5 -27 25 23 c22
22 26 22 23 3 0 -3 6 -10 15 -15 12 -7 13 -13 4 -33 -13 -29 -34 -32 -59 -9
-14 13 -50 16 -202 17 l-184 2 9 24 c4 13 16 35 26 50 10 14 24 39 32 54 22
43 138 148 222 200 84 53 209 102 308 122 36 7 66 14 68 14 2 1 -11 -16 -27
-36z m286 6 c37 -12 89 -32 115 -45 161 -82 218 -327 146 -626 l-11 -47 -41
21 c-23 11 -48 26 -56 33 -29 24 -204 86 -338 120 -76 19 -132 34 -127 34 6 1
23 12 39 26 16 13 34 22 40 18 8 -4 7 -2 -1 7 -8 9 -6 17 8 31 26 26 31 158 7
187 -6 6 -8 12 -4 12 17 0 -73 81 -92 83 -17 1 -21 6 -16 22 13 40 43 92 74
125 l31 33 79 -7 c44 -3 110 -16 147 -27z m-604 -15 c5 -26 2 -33 -25 -49 -21
-12 -28 -13 -22 -4 5 8 9 19 10 24 4 19 25 68 28 64 2 -2 6 -18 9 -35z m953
-201 c159 -156 233 -300 252 -491 10 -96 1 -227 -18 -278 l-11 -27 -33 39 -33
38 18 31 c47 81 50 269 6 386 -24 61 -64 139 -73 139 -6 0 8 -32 28 -65 10
-16 18 -37 18 -46 0 -9 7 -30 15 -46 21 -43 34 -158 24 -223 -4 -30 -8 -63 -8
-73 -1 -10 -5 -16 -10 -12 -5 3 -12 1 -16 -5 -3 -5 -2 -10 4 -10 9 0 -1 -56
-12 -67 -5 -4 -43 16 -82 43 -29 21 -77 48 -188 106 -29 15 -60 28 -69 28 -9
0 -20 5 -23 10 -3 6 -14 10 -24 10 -10 0 -32 7 -47 15 -16 8 -36 15 -45 15 -9
0 -19 3 -23 8 -4 4 -11 7 -14 8 -29 3 -98 19 -157 36 -140 40 -258 57 -269 40
-5 -9 21 -13 144 -27 51 -6 133 -26 146 -36 6 -5 24 -11 40 -13 16 -2 42 -8
57 -15 16 -6 33 -11 38 -11 5 0 9 -5 9 -12 0 -9 3 -9 11 -1 12 12 45 0 60 -21
4 -5 11 -6 16 -3 4 3 31 -5 58 -18 27 -13 52 -22 57 -19 4 3 8 2 8 -3 0 -9 61
-39 73 -35 4 1 7 -2 7 -7 0 -5 10 -11 23 -15 15 -4 18 -9 10 -14 -7 -4 5 -7
27 -7 32 0 44 -7 78 -43 22 -23 43 -42 47 -42 4 0 22 -17 41 -37 32 -35 34
-41 28 -88 -22 -193 -155 -357 -349 -433 -50 -20 -125 -36 -125 -28 0 3 17 10
37 17 81 26 124 50 114 62 -6 8 -5 20 4 37 20 36 18 100 -4 143 l-19 37 34 21
c19 11 32 25 28 30 -3 5 0 9 6 9 6 0 16 14 21 30 6 17 15 30 21 30 5 0 7 3 5
8 -3 4 -2 53 2 109 3 55 3 99 -1 96 -5 -2 -8 -30 -8 -62 0 -94 -17 -159 -51
-203 -42 -53 -72 -64 -107 -39 -15 10 -38 22 -51 26 -18 6 -20 9 -10 16 8 5
26 9 40 9 25 0 25 0 18 61 -15 129 -108 179 -227 122 -37 -18 -92 -93 -92
-126 0 -17 5 -19 33 -14 42 7 127 -9 145 -27 11 -11 1 -14 -65 -19 -50 -3
-110 -17 -168 -38 -71 -25 -107 -32 -170 -33 -92 -1 -96 0 -189 43 -73 34
-172 50 -239 37 -21 -4 -52 -21 -72 -40 -35 -33 -35 -33 -35 -9 0 13 4 22 9
19 4 -3 6 11 4 31 -2 21 3 71 11 113 9 41 18 107 21 145 2 39 7 84 10 102 3
17 1 34 -5 38 -17 11 -11 23 18 34 l27 11 -27 -5 c-35 -7 -35 0 0 20 15 9 19
14 10 11 -10 -3 -18 -1 -18 5 0 6 9 13 20 16 11 3 20 9 20 13 0 6 74 22 117
24 6 1 15 5 20 10 4 5 -18 6 -52 3 -67 -6 -174 -53 -198 -87 l-15 -21 -48 22
c-75 35 -125 69 -119 80 4 5 1 8 -5 7 -7 -2 -17 5 -23 15 -26 38 40 88 148
112 59 13 115 16 267 13 169 -3 197 -5 225 -22 18 -11 30 -23 27 -28 -3 -4 12
-8 34 -8 61 0 241 -29 315 -51 168 -50 389 -152 492 -228 28 -21 57 -41 65
-45 18 -9 -89 91 -122 115 l-23 17 19 68 c27 101 33 292 12 374 -9 36 -26 82
-36 103 -38 72 -23 65 86 -40z m-847 -42 c13 -8 8 -31 -7 -31 -17 1 -34 19
-28 29 9 13 16 14 35 2z m1077 -65 c50 -63 97 -153 118 -227 15 -53 25 -203
15 -214 -5 -4 -37 40 -78 105 -5 8 -14 40 -21 70 -6 30 -17 71 -24 90 -27 70
-36 107 -36 139 0 17 -7 45 -15 61 -24 46 -5 35 41 -24z m-1491 -463 c-3 -43
-16 -139 -27 -213 -12 -80 -18 -162 -15 -200 4 -70 37 -158 68 -186 10 -9 19
-22 19 -27 0 -24 -53 42 -83 102 -28 57 -31 73 -31 150 1 47 8 131 17 186 8
55 19 134 22 175 8 81 11 90 27 90 7 0 8 -25 3 -77z m1680 57 c3 -5 15 -10 26
-10 10 0 19 -3 19 -8 0 -4 12 -20 26 -35 21 -22 23 -31 14 -42 -10 -12 -9 -16
3 -21 9 -3 13 -12 10 -20 -9 -23 -19 -16 -36 24 -14 34 -15 35 -16 10 -1 -14
-4 -28 -8 -31 -5 -2 -3 -3 3 -1 14 3 22 -51 14 -87 -5 -18 -8 -21 -15 -10 -6
11 -10 10 -17 -8 -5 -14 -14 -21 -22 -18 -8 3 -17 -1 -20 -10 -5 -12 -9 -13
-20 -4 -9 8 -16 8 -20 2 -4 -6 -13 -8 -21 -4 -18 6 -20 33 -3 33 6 0 8 3 4 7
-4 5 -14 0 -21 -11 -11 -15 -16 -16 -28 -5 -10 10 -12 24 -5 59 5 25 9 73 10
108 2 39 7 62 14 62 6 0 14 -9 17 -20 8 -31 55 -27 67 6 6 14 8 30 4 35 -3 5
-1 9 5 9 5 0 13 -4 16 -10z m-710 -281 c20 -17 26 -28 22 -48 -3 -16 1 -29 10
-36 22 -16 8 -52 -23 -59 -31 -8 -57 10 -51 35 3 12 -3 19 -19 23 -48 12 -55
78 -11 96 33 13 42 12 72 -11z m-155 -46 c0 -8 4 -12 9 -9 5 3 11 -2 13 -12 4
-15 -1 -17 -36 -13 -23 2 -35 6 -28 8 6 3 12 13 12 22 0 10 7 18 15 18 8 0 15
-7 15 -14z m-527 -148 l64 -26 6 -60 c9 -98 64 -165 146 -176 85 -11 136 52
129 159 l-4 66 92 28 c127 37 224 32 307 -15 150 -86 101 -229 -98 -290 -141
-44 -330 -49 -540 -16 -121 20 -147 28 -178 59 -16 16 -37 26 -54 26 -40 0
-98 43 -128 95 -86 147 57 230 258 150z m182 -62 c28 -3 67 -1 87 5 26 7 40 7
44 0 12 -18 -20 -28 -93 -28 -75 0 -123 12 -123 31 0 7 7 8 18 4 9 -4 40 -9
67 -12z m139 -87 c-1 -32 -9 -46 -34 -69 -27 -24 -39 -28 -68 -24 -65 11 -90
57 -56 105 18 26 32 28 49 5 11 -15 13 -15 20 6 6 19 13 22 48 19 42 -3 42 -3
41 -42z m-448 -134 c14 -7 35 -57 74 -179 87 -271 120 -377 117 -378 -16 -12
-95 -19 -142 -14 -33 4 -123 8 -200 9 -115 2 -146 5 -177 21 -20 10 -49 19
-62 19 -40 0 -105 -30 -111 -51 -5 -13 -16 -19 -38 -19 -58 0 -78 19 -98 90
-54 192 -95 449 -82 501 l6 22 347 -5 c215 -3 354 -9 366 -16z m74 -60 c0 -13
3 -12 15 4 14 18 15 18 5 -6 -8 -18 -7 -37 3 -70 l13 -45 8 58 c8 58 11 63 34
49 10 -7 10 -24 -2 -88 -8 -43 -15 -72 -16 -64 -1 8 -2 21 -1 28 1 6 -3 12 -9
12 -14 0 -14 -2 28 -129 23 -70 41 -109 44 -99 4 9 4 26 1 37 -6 24 4 26 29 7
10 -7 14 -17 10 -22 -4 -4 1 -2 11 5 15 12 17 11 17 -8 0 -29 -17 -61 -33 -61
-8 0 -7 4 3 11 13 9 12 10 -2 5 -11 -3 -18 0 -18 7 0 8 -4 6 -10 -3 -5 -8 -7
-23 -4 -32 3 -9 7 -26 9 -38 2 -12 7 -31 11 -43 4 -14 3 -18 -3 -12 -5 6 -22
54 -37 108 -15 53 -53 177 -85 274 -38 116 -51 168 -39 153 10 -12 18 -29 18
-38z m943 -8 c29 -15 81 -52 117 -83 168 -147 217 -210 317 -413 34 -70 79
-145 99 -168 l36 -40 -27 -12 c-21 -10 -35 -9 -68 3 -53 18 -96 74 -132 171
-50 133 -103 222 -183 304 -128 132 -239 192 -374 201 -85 6 -102 19 -35 27
61 7 88 6 83 -3 -3 -4 22 -5 55 -3 41 3 64 0 72 -8 9 -10 9 -14 -1 -17 -10 -4
-8 -9 5 -19 10 -7 23 -13 28 -13 6 0 2 5 -7 12 -10 8 -13 18 -9 26 6 8 12 3
21 -19 16 -37 42 -54 59 -37 10 9 11 8 5 -8 -4 -11 -4 -17 1 -13 4 4 23 -10
43 -30 19 -20 32 -30 27 -22 -10 18 100 -98 133 -140 12 -15 22 -33 22 -39 0
-6 5 -11 10 -11 14 0 40 -62 33 -74 -4 -5 -1 -6 5 -2 7 4 12 1 12 -9 0 -8 6
-18 14 -21 8 -3 12 -12 9 -20 -3 -9 1 -14 12 -14 10 0 13 -5 9 -12 -5 -7 -3
-8 5 -4 8 5 12 3 10 -5 -3 -28 1 -40 13 -33 8 5 9 2 5 -9 -3 -10 -2 -17 3 -17
5 0 12 -11 16 -25 3 -14 10 -23 14 -20 16 10 19 -39 3 -50 -15 -11 -15 -13 5
-24 26 -14 82 -15 82 -1 0 6 -16 8 -37 5 -32 -4 -34 -3 -18 9 17 12 17 15 -8
47 -14 19 -40 65 -57 103 -62 140 -153 270 -253 365 -98 93 -127 115 -195 153
-76 43 -59 52 21 12z m-803 -25 c0 -8 4 -8 14 0 10 8 21 8 41 1 15 -6 31 -8
36 -4 5 3 9 -11 9 -31 0 -25 4 -35 12 -33 7 3 13 15 13 29 0 19 6 25 28 27 25
3 27 1 27 -31 0 -23 5 -34 15 -34 10 0 15 10 15 29 0 31 -2 30 100 32 30 1 60
4 65 8 6 3 18 3 27 -1 12 -4 -11 -18 -75 -45 -135 -58 -214 -54 -319 17 -52
35 -59 47 -28 47 11 0 20 -5 20 -11z m483 -38 c-7 -24 -13 -58 -13 -75 0 -17
-9 -44 -20 -61 l-21 -30 7 100 c3 55 8 102 9 106 2 3 15 5 28 5 24 0 24 0 10
-45z m-509 6 c-13 -35 179 -107 232 -86 28 11 104 10 104 -1 0 -5 -4 -10 -9
-10 -6 0 -9 -9 -8 -20 1 -15 6 -19 22 -14 40 13 51 25 15 18 l-35 -6 23 21
c12 12 22 28 22 36 0 8 5 15 10 15 6 0 19 9 30 20 12 12 25 18 30 15 5 -3 7
-44 5 -92 -3 -81 -5 -88 -34 -115 -17 -16 -31 -26 -31 -22 0 5 -5 3 -12 -4
-15 -15 -58 -16 -58 -2 0 6 12 10 28 10 48 0 56 14 24 41 -15 13 -35 26 -43
28 -8 2 -36 10 -64 18 -70 19 -155 10 -217 -22 -27 -14 -53 -23 -57 -20 -16
17 5 205 23 205 3 0 3 -6 0 -13z m576 -5 c0 -7 -4 -10 -10 -7 -5 3 -10 -3 -10
-14 0 -12 -4 -21 -9 -21 -5 0 -13 -9 -16 -20 -11 -33 -23 -22 -15 13 4 17 11
39 14 47 8 19 46 21 46 2z m107 -15 c18 -4 62 -20 98 -37 57 -27 65 -34 65
-58 0 -44 -17 -91 -47 -130 l-27 -36 -8 38 c-17 80 -86 137 -175 146 l-53 5
41 47 c31 37 44 46 57 39 9 -4 32 -11 49 -14z m-40 -102 c21 -9 46 -23 57 -33
25 -22 56 -90 55 -122 0 -17 -6 -8 -18 28 -29 83 -58 108 -151 128 -51 12 -53
12 -17 13 21 1 54 -6 74 -14z m-35 -15 c54 -15 91 -51 111 -108 17 -47 17 -53
3 -74 -9 -12 -16 -18 -16 -13 0 5 -5 4 -11 -2 -6 -6 -17 -9 -24 -7 -7 3 -16 1
-20 -5 -12 -21 -30 -10 -49 30 -20 44 -87 99 -120 99 -14 0 -8 -7 22 -21 46
-23 90 -72 94 -107 5 -35 -14 -29 -26 8 -6 19 -15 34 -20 33 -13 -3 -17 -35
-6 -48 5 -6 5 -16 1 -23 -5 -9 -13 -5 -29 13 -12 14 -33 25 -46 25 -22 0 -56
31 -56 51 0 15 66 -3 81 -22 12 -17 17 -18 26 -7 29 35 -70 86 -103 53 -9 -9
-19 -14 -22 -11 -10 11 67 76 90 76 23 0 79 -29 105 -55 7 -8 22 -33 32 -56
24 -53 37 -34 15 21 -14 36 -15 43 -3 51 22 14 30 6 49 -41 10 -25 20 -38 24
-32 10 16 -26 92 -59 124 -33 33 -138 67 -121 39 3 -5 -5 -16 -19 -25 -29 -19
-32 -14 -7 19 19 27 46 31 104 15z m312 -7 c20 -10 36 -22 36 -28 0 -5 18 -25
40 -44 24 -20 39 -40 36 -48 -3 -8 -2 -11 3 -8 5 3 12 -4 16 -15 3 -11 11 -20
16 -20 6 0 7 -4 4 -10 -3 -5 -1 -10 5 -10 6 0 8 -5 4 -12 -4 -6 1 -17 10 -24
10 -7 17 -14 16 -16 -5 -10 13 -57 20 -53 5 3 12 0 16 -6 5 -8 3 -9 -6 -4 -9
6 -12 4 -8 -6 31 -77 41 -99 47 -99 4 0 8 -6 9 -12 0 -7 4 -23 7 -35 6 -17 1
-25 -23 -37 -17 -9 -37 -22 -45 -31 -15 -15 -47 -11 -47 6 0 5 -6 9 -14 9 -21
0 -42 38 -86 158 -7 18 -14 31 -16 29 -6 -5 36 -130 48 -145 6 -7 8 -15 5 -19
-10 -9 -120 -53 -134 -53 -18 0 -16 50 2 94 12 28 13 41 4 58 -7 13 -8 23 -1
27 5 3 8 20 6 36 -2 17 -5 50 -8 75 -2 25 -12 65 -20 89 -20 55 -20 70 0 110
9 17 13 38 10 46 -7 20 5 19 48 -2z m-647 -28 c28 -8 62 -24 75 -35 30 -25 12
-25 -30 0 -36 22 -52 26 -34 8 20 -20 14 -28 -20 -29 -31 -1 -32 -1 -8 -9 15
-5 18 -8 8 -9 -33 -2 -48 11 -48 43 -1 30 -1 30 -16 11 -15 -19 -16 -19 -29
-1 -13 17 -14 15 -20 -17 -7 -37 -24 -51 -50 -41 -17 7 -29 40 -19 55 10 16
-46 2 -67 -17 -18 -16 -29 -18 -29 -4 0 10 50 38 90 51 43 13 144 10 197 -6z
m321 2 c6 0 12 -4 12 -9 0 -4 7 -8 15 -8 21 0 31 -30 14 -41 -20 -13 -29 -11
-29 6 0 8 -3 14 -7 14 -22 -4 -33 2 -27 13 5 7 2 9 -7 6 -10 -4 -15 1 -16 14
-2 15 2 18 15 13 9 -4 23 -8 30 -8z m-180 -147 c38 -58 38 -60 11 -55 -12 2
-28 -3 -37 -11 -8 -9 -18 -12 -21 -7 -3 4 -16 8 -29 9 -17 0 -21 -3 -17 -15 9
-22 19 -87 13 -81 -3 3 -20 41 -37 84 -30 74 -31 80 -15 97 16 17 7 28 -9 12
-4 -4 -32 -6 -61 -4 -30 1 -57 -2 -61 -8 -4 -7 13 -11 49 -11 42 0 56 -4 56
-14 0 -8 3 -22 6 -31 6 -15 -3 -16 -87 -13 -92 3 -94 4 -94 28 0 19 10 30 45
47 36 18 62 22 133 21 49 0 91 2 94 5 11 11 30 -5 61 -53z m433 -20 c11 -55
12 -80 5 -80 -6 0 -16 10 -21 22 -9 20 -16 22 -60 19 -27 -1 -52 -6 -55 -10
-6 -9 -80 -10 -80 -1 0 3 38 25 85 49 47 24 87 52 90 62 12 35 21 19 36 -61z
m-791 -30 c0 -20 -21 -9 -30 16 -14 35 -13 37 10 14 11 -11 20 -24 20 -30z
m457 -27 c3 -7 -12 -14 -39 -17 -123 -17 -166 -11 -93 11 19 6 33 7 29 2 -3
-5 6 -9 20 -9 17 0 26 6 26 16 0 18 51 16 57 -3z m286 -3 c14 0 17 -9 17 -45
0 -25 -4 -45 -10 -45 -5 0 -10 7 -10 16 0 13 -7 15 -30 11 -29 -6 -30 -6 -30
34 0 38 2 41 23 35 12 -3 30 -6 40 -6z m-509 -11 c2 -2 7 -15 11 -27 6 -22 5
-23 -14 -13 -11 7 -57 12 -101 13 -80 1 -90 4 -68 26 10 10 162 12 172 1z
m326 -15 c0 -24 -3 -26 -30 -20 -19 3 -29 2 -25 -4 3 -6 1 -10 -4 -10 -6 0
-11 11 -11 24 0 24 10 29 58 35 7 0 12 -10 12 -25z m100 -7 c0 -20 -4 -22 -40
-19 -31 3 -40 8 -40 23 0 15 7 19 40 19 35 0 40 -3 40 -23z m-1239 -10 c94
-62 109 -265 23 -297 -30 -12 -54 -13 -39 -2 28 20 38 49 44 126 3 46 3 82 -1
80 -5 -3 -8 3 -8 13 0 26 -27 61 -64 84 -26 16 -28 19 -10 19 12 0 36 -10 55
-23z m1049 -12 c0 -33 -1 -34 -20 -23 -30 19 -25 58 7 58 8 0 13 -13 13 -35z
m-56 16 c3 -5 -13 -8 -37 -8 -23 1 -50 -2 -59 -7 -11 -5 -18 -4 -18 2 0 18
104 30 114 13z m394 -29 c3 -25 0 -31 -12 -26 -10 4 -16 18 -16 36 0 40 24 32
28 -10z m-1433 12 c53 -35 76 -185 35 -236 -10 -14 -17 -28 -13 -31 3 -3 -6
-9 -20 -12 -34 -9 -81 33 -103 91 -24 62 -16 160 15 185 28 23 54 24 86 3z
m453 -7 l23 1 -22 -19 c-16 -13 -32 -17 -58 -14 -20 2 -87 7 -149 10 -117 6
-142 11 -142 26 0 5 68 6 163 2 89 -3 172 -6 185 -6z m327 3 c-3 -5 2 -10 12
-10 15 0 16 -2 3 -11 -12 -9 -11 -10 8 -6 12 3 22 1 22 -4 0 -14 -58 -10 -67
5 -4 7 -21 18 -38 24 -29 10 -28 10 18 11 30 1 46 -3 42 -9z m81 -15 c14 -14
22 -30 19 -36 -4 -6 -8 -9 -9 -7 0 2 -14 18 -30 36 -35 37 -17 44 20 7z m-221
-5 c24 -20 11 -22 -28 -4 -62 30 -145 -5 -182 -77 -16 -30 -19 -101 -6 -134 5
-12 7 7 4 45 -5 57 -3 68 17 90 18 21 21 22 15 5 -40 -115 14 -208 117 -204
27 1 28 3 8 6 -46 7 -77 24 -90 49 -8 13 -16 20 -19 15 -3 -5 -6 19 -6 54 0
35 3 61 7 59 4 -2 9 5 13 16 4 11 17 28 30 36 29 19 115 27 112 10 -1 -6 3
-10 10 -9 6 1 17 -4 23 -12 7 -8 10 -15 6 -15 -3 0 3 -14 13 -31 16 -25 17
-37 8 -72 -5 -23 -16 -49 -23 -58 -8 -8 -14 -18 -14 -21 0 -8 30 -5 31 4 1 4
3 13 4 18 1 6 3 18 4 27 1 15 3 14 20 -3 10 -10 16 -23 13 -29 -3 -5 1 -5 8 2
22 21 16 136 -9 171 -22 32 -27 47 -12 37 5 -3 12 -1 16 5 7 12 -15 13 -30 2
-13 -9 -13 -21 2 -47 6 -11 14 -36 17 -55 16 -92 16 -92 2 -80 -8 6 -12 19 -9
30 6 24 -23 114 -43 131 -10 8 -11 15 -4 25 8 9 6 15 -7 23 -15 9 -16 10 -2
11 9 0 22 -6 29 -14 6 -8 18 -12 25 -9 20 7 70 -33 53 -43 -6 -4 -14 -2 -16 4
-2 7 -8 12 -13 12 -5 0 0 -18 11 -40 11 -22 20 -59 20 -85 0 -25 4 -45 9 -45
5 0 7 9 4 21 -4 12 0 25 8 30 10 6 10 9 2 9 -7 0 -13 9 -13 20 0 12 7 20 16
20 9 0 14 -6 11 -12 -2 -7 0 -21 5 -30 7 -14 5 -18 -9 -19 -11 0 -13 -3 -5 -6
6 -2 12 -13 12 -24 0 -14 7 -19 30 -19 22 0 28 -4 24 -15 -6 -14 -41 -31 -58
-27 -4 2 -14 -2 -22 -9 -7 -6 -18 -8 -24 -4 -6 4 -18 1 -27 -7 -15 -11 -16
-11 -10 4 3 10 2 20 -4 23 -5 4 -9 3 -8 -2 3 -19 -2 -31 -17 -37 -8 -3 -13 -2
-9 3 3 5 -13 1 -34 -10 -22 -10 -48 -19 -58 -18 -13 1 -11 3 7 9 l25 8 -26 1
c-14 1 -31 -5 -37 -11 -9 -9 -15 -10 -20 -2 -10 16 -51 36 -61 30 -4 -3 -13 6
-20 20 -6 14 -16 22 -21 19 -17 -11 -32 48 -27 107 6 64 25 96 77 128 39 23
126 24 155 0z m431 -23 c41 -44 58 -117 43 -186 -11 -54 -39 -86 -84 -97 l-30
-7 33 37 c17 20 32 47 33 59 0 21 1 21 9 2 8 -19 6 38 -5 108 -3 20 -1 26 7
21 17 -11 -44 69 -62 81 -8 6 -24 13 -35 17 -12 5 -3 6 20 3 29 -3 48 -13 71
-38z m199 23 c4 -6 -23 -10 -75 -10 -52 0 -79 4 -75 10 3 6 37 10 75 10 38 0
72 -4 75 -10z m-258 -22 c60 -67 50 -248 -15 -248 -13 0 -14 -2 -3 -9 22 -14
-24 -24 -49 -11 -65 35 -86 189 -36 265 22 33 74 35 103 3z m339 -8 c30 -22
57 -78 58 -123 1 -44 -24 -68 -102 -100 -43 -17 -44 -17 -37 0 3 10 9 31 12
46 5 24 10 27 28 23 17 -4 24 -1 28 16 5 18 8 19 21 8 13 -10 16 -10 16 3 0 8
3 23 7 33 5 13 -1 11 -22 -8 -16 -15 -32 -25 -36 -22 -4 2 -10 0 -14 -6 -10
-16 -25 -12 -25 8 -1 15 -14 55 -35 106 -7 16 -5 17 14 11 17 -5 24 -2 28 13
5 22 21 20 59 -8z m-1112 -17 c37 -21 28 -182 -11 -197 -23 -9 -24 -5 -7 44
18 51 13 115 -10 138 -14 14 -15 12 -14 -21 1 -20 5 -34 10 -31 4 3 8 -2 8
-10 0 -9 -8 -16 -17 -17 -11 0 -13 -3 -5 -6 31 -12 0 -93 -35 -93 -12 0 -14
13 -10 60 3 33 1 76 -3 97 -6 23 -5 40 1 44 15 9 72 5 93 -8z m95 -19 c6 -14
11 -33 11 -44 0 -31 17 -32 18 0 0 16 -6 34 -14 41 -24 20 -16 30 25 28 l39
-3 -15 -40 c-9 -27 -12 -58 -8 -88 l6 -47 -35 -6 c-60 -12 -65 -7 -51 47 6 26
8 51 4 55 -4 4 -9 22 -10 38 -2 17 -7 35 -12 42 -6 8 -2 10 11 6 11 -2 25 -16
31 -29z m874 4 c14 -19 21 -45 22 -86 4 -102 -38 -162 -87 -123 l-23 19 27 -5
c20 -4 29 0 39 19 18 34 16 127 -5 166 -18 34 -36 35 -36 1 0 -11 5 -17 10
-14 12 8 13 -5 1 -23 -6 -10 -11 -5 -20 18 -9 28 -8 35 7 46 24 19 41 14 65
-18z m37 -4 c19 -39 24 -152 8 -183 -20 -38 -40 -39 -22 -1 22 43 19 133 -5
182 -11 22 -14 37 -7 35 6 -2 18 -17 26 -33z m190 -9 c0 -25 -3 -45 -8 -45 -4
0 -12 20 -18 45 -9 41 -9 45 8 45 15 0 18 -8 18 -45z m-1144 -36 c6 -46 -10
-129 -26 -129 -4 0 -4 17 2 38 6 20 8 63 5 96 -6 68 10 64 19 -5z m549 51
l-30 -8 30 -2 c26 -1 27 -3 10 -10 -30 -13 -33 -12 -45 10 -10 18 -8 20 27 19
38 -1 38 -1 8 -9z m335 -72 c2 -80 0 -102 -12 -109 -6 -4 -16 -5 -20 -3 -11 7
-10 42 2 49 6 3 10 17 10 30 0 24 9 55 16 55 2 0 4 -10 4 -22z m-320 2 c-13
-9 -13 -10 0 -10 13 0 13 -1 0 -10 -23 -15 -30 -12 -30 10 0 14 7 20 23 20 18
0 19 -2 7 -10z m1 -44 c-9 -11 -9 -15 1 -19 7 -3 1 -6 -14 -6 -45 -1 -30 24
21 38 2 1 -2 -5 -8 -13z"/>
<path d="M1270 2548 c-45 -13 -46 -14 -26 -33 15 -15 16 -15 16 4 0 16 6 21
24 21 14 0 28 5 31 10 7 12 2 12 -45 -2z"/>
<path d="M1158 2500 c-21 -11 -38 -18 -38 -16 0 2 -17 -12 -37 -31 -21 -19
-37 -39 -35 -45 1 -5 -1 -7 -6 -4 -14 9 -142 -132 -142 -156 0 -5 5 -8 10 -8
6 0 10 7 10 16 0 8 4 13 9 9 5 -3 11 5 13 17 2 13 6 21 10 18 9 -7 58 41 52
51 -3 5 -2 9 3 9 4 0 31 20 58 45 79 72 74 69 100 55 13 -7 30 -10 39 -7 25
10 25 -16 0 -43 -23 -25 -50 -120 -34 -120 5 0 11 -13 15 -30 4 -16 10 -32 15
-35 5 -3 4 12 -2 32 -16 59 -5 119 31 163 18 23 27 41 21 45 -6 4 -7 11 -4 17
5 8 1 9 -12 4 -40 -17 -57 -19 -50 -8 4 7 16 12 27 12 12 0 19 5 17 13 -7 20
-30 19 -70 -3z"/>
<path d="M1315 2470 c-17 -7 -17 -9 -2 -9 9 -1 17 -9 18 -18 0 -14 3 -13 11 5
13 27 24 28 37 5 9 -16 10 -16 11 5 0 18 -5 22 -27 21 -16 0 -37 -4 -48 -9z"/>
<path d="M1409 2345 c0 -11 -3 -14 -6 -7 -8 21 -21 13 -16 -10 5 -23 5 -23
-10 -3 -16 20 -16 20 -17 0 0 -17 -2 -17 -10 -5 -7 12 -10 12 -10 1 0 -7 -6
-11 -15 -7 -10 3 -15 -1 -15 -12 0 -15 -2 -15 -10 -2 -8 12 -10 11 -10 -7 0
-12 5 -25 10 -28 6 -3 10 -1 10 6 0 7 7 4 15 -7 14 -18 14 -18 8 4 -3 13 -1
22 6 22 6 0 11 -6 12 -12 0 -7 4 -4 9 7 6 13 9 15 9 5 1 -13 2 -13 11 0 9 13
11 13 20 0 8 -12 10 -10 10 10 0 20 2 22 10 10 8 -12 10 -12 10 5 0 11 -5 27
-10 35 -8 12 -10 12 -11 -5z"/>
<path d="M1460 2234 c0 -8 5 -12 10 -9 6 3 10 -2 10 -11 0 -14 3 -15 12 -6 8
8 8 15 -2 27 -16 19 -30 19 -30 -1z"/>
<path d="M1522 2627 c-12 -13 -22 -32 -21 -43 0 -18 1 -17 9 2 4 12 21 31 37
42 19 14 23 21 12 22 -8 0 -25 -10 -37 -23z"/>
<path d="M1671 2543 c-14 -16 -7 -17 19 -3 20 10 67 -4 82 -25 5 -6 8 -6 8 2
0 16 -51 42 -77 40 -11 0 -25 -7 -32 -14z"/>
<path d="M1685 2510 c-7 -12 30 -50 49 -50 27 0 27 19 1 22 -14 2 -25 8 -24
13 1 11 3 11 34 -1 18 -7 18 -6 6 9 -15 18 -56 23 -66 7z"/>
<path d="M2006 2107 c-18 -63 -19 -67 -8 -67 7 0 32 111 27 118 -2 2 -10 -21
-19 -51z"/>
<path d="M837 2143 c-3 -5 76 -8 175 -8 98 0 169 3 156 7 -33 9 -326 10 -331
1z"/>
<path d="M725 2125 c-16 -8 -21 -13 -10 -10 11 2 38 7 60 11 51 8 58 14 14 14
-19 -1 -47 -7 -64 -15z"/>
<path d="M665 2107 c-23 -14 -29 -48 -12 -59 19 -12 24 -9 29 17 4 18 1 25
-10 25 -13 0 -12 3 4 15 23 17 17 19 -11 2z"/>
<path d="M790 2107 c-67 -9 -86 -16 -88 -29 -2 -11 3 -18 12 -18 9 0 16 4 16
9 0 17 137 30 303 26 119 -2 164 0 147 7 -39 15 -295 18 -390 5z"/>
<path d="M1123 2052 c-24 -2 -43 -6 -43 -10 0 -4 50 -6 110 -4 70 2 108 7 104
13 -5 9 -53 9 -171 1z"/>
<path d="M1510 2051 c8 -5 38 -12 65 -15 l50 -6 -55 15 c-63 16 -81 18 -60 6z"/>
<path d="M1122 1973 c37 -2 100 -2 140 0 40 1 10 3 -67 3 -77 0 -110 -1 -73
-3z"/>
<path d="M1616 1933 c10 -10 30 -17 48 -16 17 1 23 -1 13 -3 -9 -3 -15 -9 -12
-14 3 -5 -7 -11 -23 -15 -21 -4 -28 -12 -29 -33 -1 -15 1 -20 4 -12 3 8 12 21
21 28 19 15 104 16 119 1 8 -8 13 -7 18 2 6 8 4 10 -5 4 -9 -5 -11 -4 -6 3 10
17 26 15 26 -3 0 -8 8 -15 18 -14 10 0 12 3 4 6 -6 2 -10 8 -7 13 5 9 -66 40
-91 40 -8 0 -13 4 -10 9 3 4 -12 5 -34 1 -31 -6 -40 -4 -40 6 0 8 -7 14 -16
14 -13 0 -13 -2 2 -17z"/>
<path d="M1003 1925 c-31 -13 -45 -35 -23 -35 6 0 10 -8 11 -17 0 -10 3 -13 5
-7 6 14 74 -3 74 -18 0 -5 10 -6 22 -2 21 6 22 6 8 -12 -14 -18 -14 -18 2 -5
10 7 15 17 12 22 -3 5 -1 9 5 9 5 0 9 9 8 20 -1 11 -5 20 -9 20 -4 0 -8 7 -8
15 0 8 -5 15 -11 15 -5 0 -7 -5 -3 -12 4 -6 -3 -4 -17 5 -28 20 -34 20 -76 2z
m91 -34 c25 -26 13 -40 -13 -17 -11 10 -36 18 -55 19 -20 1 -36 4 -36 7 0 28
73 21 104 -9z"/>
<path d="M1644 1846 c-16 -13 -17 -17 -5 -28 12 -11 13 -11 6 1 -6 11 -4 13 9
8 9 -4 15 -3 12 1 -3 5 23 7 57 5 59 -4 61 -3 37 11 -32 19 -91 20 -116 2z"/>
<path d="M1996 1803 c-14 -4 -9 -9 24 -24 24 -11 45 -17 48 -14 3 3 0 5 -7 5
-8 0 -11 7 -7 15 3 8 1 15 -4 15 -6 0 -10 -4 -10 -10 0 -5 -7 -7 -16 -3 -13 5
-13 7 -2 14 14 9 5 10 -26 2z"/>
<path d="M995 1658 c-27 -15 -65 -58 -65 -75 0 -20 33 -16 47 6 29 46 121 33
149 -20 15 -31 44 -39 44 -14 0 74 -111 139 -175 103z"/>
<path d="M2236 1645 c-5 -16 -10 -48 -12 -70 -3 -21 -11 -50 -20 -63 -9 -14
-11 -21 -5 -18 7 5 9 1 5 -8 -3 -9 -11 -13 -16 -10 -6 4 -8 1 -6 -7 3 -8 -4
-27 -16 -44 -11 -16 -19 -36 -18 -43 2 -8 -1 -11 -7 -8 -6 4 -18 -6 -28 -21
-10 -15 -23 -32 -30 -36 -7 -4 -13 -15 -13 -22 0 -8 -4 -15 -10 -15 -5 0 -10
-6 -10 -14 0 -9 -7 -13 -19 -11 -14 3 -18 -1 -14 -11 3 -8 10 -14 16 -14 6 0
7 -3 4 -6 -4 -4 -14 -1 -24 7 -15 12 -16 12 -10 -4 4 -10 3 -16 -2 -12 -5 3
-12 1 -15 -4 -13 -21 16 -21 49 -1 38 24 45 32 18 24 -11 -4 -5 6 13 23 114
105 189 257 182 370 -3 45 -3 46 -12 18z"/>
<path d="M1290 1610 c-6 -4 -8 -15 -4 -25 5 -11 4 -16 -3 -12 -5 3 -10 1 -10
-6 0 -7 -8 -29 -17 -49 -9 -20 -12 -39 -8 -42 5 -3 19 19 31 49 12 29 29 59
37 66 8 6 14 15 14 19 0 9 -26 9 -40 0z"/>
<path d="M1306 1535 c-31 -66 -31 -64 -7 -58 20 5 55 69 46 84 -4 5 -1 9 4 9
6 0 11 5 11 10 0 6 -6 10 -14 10 -7 0 -25 -25 -40 -55z"/>
<path d="M1380 1568 c0 -20 53 -78 72 -78 7 0 2 10 -13 23 -14 12 -33 33 -42
47 -12 17 -17 20 -17 8z"/>
<path d="M2350 2261 c0 -6 4 -11 9 -11 11 0 33 -59 25 -71 -3 -5 -2 -14 2 -21
5 -8 10 -6 14 8 5 11 0 34 -11 56 -19 38 -39 57 -39 39z"/>
<path d="M2406 2145 c-9 -24 -7 -63 3 -67 5 -1 18 -32 29 -68 20 -62 21 -63
21 -26 1 45 -18 116 -31 116 -5 0 -7 8 -4 18 8 24 -9 50 -18 27z"/>
<path d="M2530 1877 c0 -7 6 -19 13 -26 10 -10 8 -15 -7 -27 -23 -16 -14 -19
15 -4 10 6 19 17 19 25 0 7 6 16 13 18 6 3 2 6 -11 6 -13 1 -20 5 -17 11 3 6
-1 10 -9 10 -9 0 -16 -6 -16 -13z"/>
<path d="M2493 1834 c4 -7 0 -17 -8 -24 -12 -10 -16 -9 -21 4 -9 23 -23 20
-17 -4 3 -12 8 -18 11 -16 3 3 11 -2 19 -12 8 -9 12 -11 8 -4 -3 6 -2 12 3 12
16 0 24 32 11 44 -9 8 -10 8 -6 0z"/>
<path d="M315 1150 c-6 -9 -4 -11 5 -5 10 6 12 4 7 -8 -3 -9 -1 -19 5 -23 7
-4 8 -3 4 4 -4 8 0 12 11 12 15 0 16 2 3 10 -11 7 -4 9 25 5 22 -3 160 -7 307
-9 178 -3 274 -8 288 -16 15 -8 20 -8 16 -1 -4 6 -1 11 6 11 8 0 19 -12 26
-27 10 -26 11 -26 6 -3 -4 14 -11 30 -18 37 -17 19 -680 31 -691 13z"/>
<path d="M314 1085 c3 -16 8 -57 11 -90 8 -72 41 -217 61 -264 8 -18 11 -38 7
-45 -4 -8 -3 -8 6 0 9 8 8 19 -4 47 -18 43 -19 50 -4 41 8 -5 8 -1 0 13 -6 11
-8 22 -6 25 3 2 -4 28 -15 56 -11 29 -20 65 -20 80 0 16 -3 32 -7 36 -4 4 -9
24 -10 45 -1 21 -7 49 -13 62 -10 23 -10 22 -6 -6z"/>
<path d="M685 1071 c-4 -3 -10 -6 -13 -6 -4 -1 -17 -6 -28 -13 -12 -6 -25 -8
-29 -4 -5 4 -5 2 -2 -4 9 -15 -19 -38 -34 -28 -7 4 -9 3 -5 -4 3 -6 2 -21 -3
-34 -5 -12 -10 -27 -11 -33 -1 -5 -6 -20 -11 -33 -6 -15 -5 -21 1 -17 6 3 10
-2 11 -12 1 -10 2 -32 3 -50 2 -45 65 -105 141 -133 105 -38 181 -9 205 80 13
49 5 128 -18 180 -8 19 -16 38 -16 42 -1 3 -5 10 -10 15 -5 5 -6 3 -2 -4 4 -7
5 -13 1 -13 -3 0 -10 12 -16 27 -8 22 -12 24 -19 13 -7 -12 -10 -12 -16 3 -4
11 -13 16 -22 12 -12 -4 -13 -3 -2 10 14 16 3 20 -19 6 -7 -5 -28 -5 -47 -1
-18 4 -36 5 -39 1z m122 -46 c15 -10 34 -27 41 -37 7 -10 18 -15 24 -12 7 4 8
2 4 -4 -4 -6 0 -25 9 -41 8 -17 15 -53 15 -80 0 -46 -4 -54 -44 -96 -43 -44
-45 -45 -100 -41 -31 2 -68 11 -82 20 -13 9 -29 14 -35 11 -5 -4 -8 -3 -7 2 1
4 -11 27 -27 51 -60 91 -41 197 45 240 46 22 110 17 157 -13z"/>
<path d="M665 1030 c-17 -7 -17 -9 -2 -9 9 -1 17 -8 17 -16 0 -8 0 -18 1 -22
2 -20 -21 -11 -33 12 l-14 26 -20 -28 c-20 -28 -38 -77 -25 -69 3 2 15 -2 26
-10 18 -13 18 -14 -7 -14 -22 0 -25 -4 -20 -25 6 -32 16 -39 40 -24 12 7 17
19 15 30 -9 33 7 68 37 84 41 21 71 20 64 -2 -5 -15 -4 -16 5 -3 14 20 34 0
36 -34 0 -19 -2 -22 -12 -14 -9 7 -13 7 -13 -1 0 -7 -4 -9 -10 -6 -5 3 -10 2
-10 -3 0 -5 -11 -8 -25 -7 -17 2 -26 -3 -31 -17 -5 -17 -8 -18 -16 -7 -7 10
-9 8 -5 -8 4 -17 1 -20 -12 -15 -14 5 -14 4 -2 -11 15 -19 15 -19 -12 -34 -17
-9 -16 -12 14 -38 l33 -27 10 22 c7 16 16 20 33 17 13 -2 23 0 23 4 0 5 -8 9
-17 9 -24 1 -70 37 -60 47 12 11 30 11 40 -2 5 -5 6 3 3 20 -4 17 -3 26 1 20
11 -14 33 -17 33 -4 0 5 5 7 10 4 6 -3 10 -1 10 5 0 6 5 8 10 5 6 -3 10 -2 10
3 0 5 7 9 15 9 18 0 20 -39 4 -69 -11 -20 -11 -20 14 -2 14 11 23 23 20 28 -3
4 4 5 16 1 18 -5 21 -2 21 23 0 26 -3 28 -30 24 -25 -3 -29 -1 -24 12 3 9 2
16 -4 16 -17 0 -21 48 -4 55 11 4 13 0 9 -15 -3 -13 0 -20 9 -20 16 0 18 9 4
30 -10 17 -50 23 -47 7 1 -5 -4 -12 -10 -14 -20 -7 -15 24 5 37 15 10 14 11
-5 7 -15 -4 -23 0 -23 9 0 16 -61 18 -95 4z m59 -16 c9 -23 8 -24 -13 -24 -17
0 -20 11 -12 38 3 8 20 -1 25 -14z m-110 -49 c-5 -11 -2 -13 10 -9 11 4 16 1
16 -10 0 -18 -8 -20 -29 -7 -12 8 -10 41 3 41 3 0 3 -7 0 -15z m67 -174 c7 11
9 11 9 -3 0 -9 -5 -20 -11 -24 -17 -10 -33 12 -24 33 8 17 8 17 13 -1 3 -15 6
-16 13 -5z"/>
<path d="M690 957 c-14 -7 -25 -21 -26 -32 -1 -19 -1 -19 3 -1 4 16 7 17 14 5
7 -12 9 -12 9 1 0 13 1 13 10 0 8 -12 10 -12 10 5 0 17 2 17 10 5 8 -12 10
-11 10 8 0 25 -5 27 -40 9z"/>
<path d="M783 849 c-13 -5 -23 -16 -23 -26 0 -15 -2 -16 -10 -3 -6 9 -10 11
-10 3 0 -7 -7 -10 -17 -6 -11 4 -14 3 -9 -5 12 -19 43 -14 73 12 31 27 29 38
-4 25z"/>
<path d="M830 808 c-12 -8 -12 -9 3 -4 11 3 17 0 17 -9 0 -21 -16 -27 -30 -10
-14 17 -40 20 -40 5 0 -6 7 -10 16 -8 10 2 19 -3 22 -11 3 -8 0 -11 -7 -7 -6
4 -11 1 -11 -8 0 -22 7 -20 41 12 25 23 28 30 17 40 -10 7 -18 8 -28 0z"/>
<path d="M400 627 c0 -22 27 -35 68 -32 35 2 50 11 38 22 -4 4 -11 1 -16 -7
-7 -10 -10 -11 -10 -2 0 6 -12 12 -28 12 -15 0 -33 5 -40 12 -9 9 -12 8 -12
-5z"/>
<path d="M1793 984 c-11 -11 -6 -14 25 -20 78 -14 151 -74 168 -138 10 -40 22
-15 22 45 0 34 -4 49 -14 49 -7 0 -16 -4 -19 -10 -3 -5 -11 -10 -16 -10 -6 0
-8 4 -4 10 3 5 -7 17 -22 27 -15 10 -30 20 -33 24 -5 7 -65 22 -76 19 -4 -1
-10 3 -13 8 -4 6 -11 4 -18 -4z"/>
<path d="M2258 487 c15 -37 30 -67 33 -67 9 0 -35 108 -49 122 -6 6 1 -19 16
-55z"/>
<path d="M1535 753 c-45 -11 -55 -35 -30 -69 13 -18 14 -17 9 9 -3 18 -1 26 6
22 5 -3 10 -2 10 4 0 6 7 8 15 5 23 -9 45 3 39 21 -6 15 -14 16 -49 8z"/>
<path d="M1306 712 c-3 -4 28 -9 67 -9 52 -1 64 1 42 7 -41 11 -103 12 -109 2z"/>
<path d="M575 520 c-8 -25 1 -40 25 -40 20 0 32 22 24 45 -9 22 -42 18 -49 -5z"/>
<path d="M1154 486 c-38 -38 -44 -77 -19 -126 34 -66 99 -79 146 -29 46 49 34
133 -23 173 -35 25 -67 19 -104 -18z m68 -11 c21 -24 46 -35 33 -15 -3 6 -4
10 -1 10 9 0 36 -58 36 -78 0 -10 -14 -31 -30 -46 -29 -25 -32 -26 -60 -11
-38 20 -50 44 -49 97 3 71 31 88 71 43z"/>
<path d="M1577 496 c-10 -26 4 -47 27 -44 15 2 21 10 21 28 0 29 -38 41 -48
16z"/>
<path d="M1925 495 c4 -11 11 -33 14 -50 l7 -30 7 28 c6 21 2 33 -14 50 -20
20 -21 20 -14 2z"/>
<path d="M546 1787 c-8 -19 -24 -38 -35 -42 -28 -9 -27 -33 3 -45 13 -5 28
-22 34 -39 13 -38 29 -40 38 -6 3 14 19 35 36 46 23 17 26 24 17 35 -6 8 -18
14 -25 14 -7 0 -17 14 -22 32 -11 44 -28 46 -46 5z m37 -79 c-13 -15 -17 -15
-29 -3 -12 12 -12 18 -2 34 11 19 13 19 29 3 15 -15 15 -19 2 -34z"/>
<path d="M413 1700 c-14 -54 -50 -106 -83 -122 -57 -28 -64 -37 -44 -59 9 -10
23 -19 30 -19 26 0 69 -49 84 -96 24 -71 48 -67 75 11 20 60 27 67 98 94 39
15 34 39 -16 60 -51 22 -63 36 -87 98 -20 52 -48 69 -57 33z m63 -121 c9 -10
33 -24 52 -30 35 -11 35 -12 13 -21 -48 -17 -81 -49 -93 -90 l-12 -41 -10 29
c-20 53 -35 71 -75 91 l-40 20 41 18 c32 14 45 28 62 65 l21 48 13 -36 c7 -20
19 -44 28 -53z"/>
<path d="M431 329 c-33 -13 -18 -26 50 -43 52 -14 82 -15 40 -1 -12 3 -24 17
-27 31 -7 26 -23 29 -63 13z"/>
<path d="M2629 333 c23 -9 -55 -42 -125 -53 -34 -6 -69 -7 -78 -4 -9 3 -22 2
-29 -4 -7 -6 -39 -9 -72 -8 -33 2 -51 0 -40 -4 11 -4 -37 -10 -113 -14 -72 -4
-137 -4 -144 0 -8 4 -9 3 -5 -2 5 -5 -39 -13 -110 -20 -187 -17 -29 -17 207 1
221 16 381 36 488 61 73 16 93 36 50 48 -28 7 -48 6 -29 -1z"/>
<path d="M776 240 c82 -12 336 -21 289 -10 -22 6 -107 12 -190 14 -91 2 -130
1 -99 -4z"/>
<path d="M1391 216 c9 -10 159 -16 159 -7 0 5 -37 9 -82 10 -45 1 -80 0 -77
-3z"/>
</g>
</svg>
